<svg version="1.2" xmlns="http://www.w3.org/2000/svg" viewBox="0 0 1000 1000" width="1000" height="1000"><style>.a{fill:#fff}</style><path class="a" d="m0 500v500h1000v-1000h-1000z"/><path  d="m357.6 198.3l-111.6 106.2c0.6 316.2 0.8 335.1 2.2 344 0.9 5.5 2.7 14.7 3.9 20.5 1.2 5.8 3.4 15.1 5 20.7 1.6 5.7 5 16 7.6 23 2.6 7.1 8.6 20.4 13.3 29.8 4.7 9.4 12.4 22.9 17.2 30 4.8 7.1 12.6 18 17.5 24 4.8 6 14.9 17.1 22.3 24.5 7.5 7.4 18.8 17.5 25.1 22.4 6.3 4.9 17 12.6 23.9 17.1 6.9 4.5 16.8 10.5 22 13.3 5.2 2.8 13.3 6.7 18 8.7 4.7 2 13.7 5.6 20 8 6.3 2.4 18.5 6.2 27 8.4 8.5 2.2 22.9 5.3 32 6.8l16.5 2.7 234.5 0.6v-226c-215.1 0-217.7 0-225.5-2-4.4-1.2-10-3-12.5-4.1-2.5-1.1-7.4-4-11-6.4-3.6-2.3-9.8-7.8-13.9-12.1-5.7-6.1-8.4-10.2-12.2-17.9-2.8-6-5.4-13.1-6.3-17.8-1.4-6.9-1.6-36.3-1.5-268.6 0.1-167.8-0.2-261.2-0.9-261.5-0.5-0.2-51.2 47.3-112.6 105.7z"/></svg>